<svg width="38" height="21" viewBox="0 0 38 21" fill="none" xmlns="http://www.w3.org/2000/svg">
<path fill-rule="evenodd" clip-rule="evenodd" d="M8.55037 3.72029C8.13598 1.27389 5.89618 -0.363705 3.55712 0.0694816C1.83084 0.389305 0.527606 1.74966 0.128928 3.42381C0.128243 3.42724 0.127411 3.43067 0.126432 3.43409C0.111943 3.49557 0.0987274 3.55744 0.0867841 3.6197L0.0823789 3.64158C0.071023 3.70208 0.0608908 3.76292 0.0519824 3.82411C0.0506118 3.83174 0.0493882 3.83933 0.0483113 3.84687C0.0384767 3.9153 0.0301536 3.98394 0.023348 4.05274L0.0218796 4.06713C0.015908 4.1293 0.0113559 4.19156 0.0082232 4.25392C0.00695056 4.27389 0.00592266 4.29386 0.0051395 4.31383C0.00293686 4.36302 0.00220264 4.41251 0.00146843 4.46214C0.00146843 4.48167 0 4.50105 0 4.52088C0 4.53776 0.0010279 4.5545 0.00146843 4.57139C0.00176211 4.59782 0.00234949 4.62425 0.00323054 4.65069C0.00983847 4.86273 0.0302496 5.07682 0.0665198 5.29195C0.303084 6.68784 1.57665 7.61897 2.9116 7.37183C3.39339 7.2824 3.81762 7.05171 4.15154 6.72763C4.28696 6.59647 4.45833 6.50856 4.64386 6.47509C4.82939 6.44162 5.02068 6.4641 5.19339 6.53967C5.62355 6.72743 6.10017 6.78171 6.56153 6.69547C7.84288 6.45818 8.71395 5.22117 8.57269 3.88754C8.56694 3.83153 8.55949 3.77585 8.55037 3.72029ZM18.8699 0.651126C14.1452 0.651126 11.2101 2.32014 11.2101 5.00634C11.2101 8.13806 14.2169 12.4131 18.8699 12.4131C23.4514 12.4131 26.5297 8.09004 26.5297 5.00634C26.5297 2.27932 23.6662 0.651126 18.8699 0.651126ZM37.7336 4.31383C37.7328 4.29307 37.7319 4.27242 37.7307 4.25186C37.7274 4.19019 37.7228 4.12861 37.717 4.06713L37.7156 4.05274C37.7087 3.98373 37.7004 3.9151 37.6906 3.84687L37.6869 3.82411C37.6677 3.69313 37.6429 3.56305 37.6123 3.43424L37.6098 3.42381C37.2112 1.74966 35.9079 0.389159 34.1816 0.0694816C31.8426 -0.363705 29.6028 1.27389 29.1884 3.72029C29.1792 3.77579 29.1717 3.83157 29.1661 3.88754C29.0247 5.22132 29.8959 6.45818 31.1772 6.69547C31.6562 6.78431 32.1273 6.72132 32.5455 6.53953C32.7182 6.46399 32.9095 6.44152 33.095 6.47499C33.2805 6.50846 33.4518 6.59635 33.5872 6.72748C33.9213 7.05171 34.3454 7.28255 34.8273 7.37183C36.1621 7.61897 37.4358 6.68784 37.6722 5.29195C37.7085 5.07682 37.7288 4.86273 37.7355 4.65069C37.7365 4.62425 37.7372 4.59782 37.7376 4.57139C37.7376 4.5545 37.7386 4.53762 37.7386 4.52073C37.7386 4.50105 37.7376 4.48167 37.7372 4.46199C37.7369 4.41246 37.7357 4.36317 37.7336 4.31383ZM25.6617 14.8833C24.4213 14.325 22.7536 15.2783 21.3448 15.5093C20.5151 15.6514 19.6934 15.7251 18.8699 15.7335C18.0402 15.7246 17.2126 15.6496 16.3949 15.5093C14.9859 15.2783 13.3185 14.3254 12.0778 14.8833C11.4489 15.1686 11.2551 15.8643 11.5106 16.6952C11.6863 17.2629 12.0256 17.7871 12.4567 18.2091C13.3524 19.0908 14.4981 19.7579 15.553 20.1799C16.6269 20.6127 17.7474 20.8436 18.8699 20.8517C19.9925 20.8438 21.1128 20.6129 22.1868 20.1799C23.2416 19.7585 24.3874 19.0902 25.2833 18.209C25.714 17.7868 26.0536 17.2626 26.2292 16.695C26.4847 15.8651 26.2907 15.1679 25.6617 14.8833Z" fill="#5D59F3"/>
</svg>
